<svg width="24" height="26" viewBox="0 0 24 26" fill="none" xmlns="http://www.w3.org/2000/svg">
<path d="M24 12.8759C24 6.13742 18.6274 0.674805 12 0.674805C5.37258 0.674805 0 6.13742 0 12.8759C0 18.9658 4.38822 24.0135 10.125 24.9288V16.4028H7.07814V12.8759H10.125V10.1879C10.125 7.12995 11.9165 5.44087 14.6576 5.44087C15.9705 5.44087 17.3438 5.67916 17.3438 5.67916V8.68178H15.8306C14.3399 8.68178 13.875 9.62229 13.875 10.5872V12.8759H17.2031L16.6711 16.4028H13.875V24.9288C19.6118 24.0135 24 18.9658 24 12.8759Z" fill="#1877F2"/>
<path d="M16.6711 16.4028L17.2031 12.876H13.875V10.5872C13.875 9.62235 14.3399 8.68183 15.8306 8.68183H17.3438V5.67921C17.3438 5.67921 15.9705 5.44092 14.6576 5.44092C11.9165 5.44092 10.125 7.13 10.125 10.1879V12.876H7.07812V16.4028H10.125V24.9288C10.7453 25.0277 11.3722 25.0772 12 25.0771C12.6379 25.0771 13.264 25.0263 13.875 24.9288V16.4028H16.6711Z" fill="white"/>
</svg>
