<svg viewBox="0 0 21 24" xmlns="http://www.w3.org/2000/svg">
  <path d="M15 2.86363V20.8636C15 22.8793 16.3892 24 17.8636 24C19.2273 24 20.7273 23.0454 20.7273 20.8636V2.99999C20.7273 1.15483 19.3636 0 17.8636 0C16.3636 0 15 1.27415 15 2.86363Z" fill="#F8AB00"/>
  <path d="M7.5 11.9999V20.8635C7.5 22.8791 8.8892 23.9999 10.3636 23.9999C11.7273 23.9999 13.2273 23.0453 13.2273 20.8635V12.1362C13.2273 10.2911 11.8636 9.13623 10.3636 9.13623C8.86364 9.13623 7.5 10.4104 7.5 11.9999Z" fill="#E37300"/>
  <path d="M5.72727 21.1366C5.72727 22.7176 4.4446 24.0002 2.86364 24.0002C1.28267 24.0002 0 22.7176 0 21.1366C0 19.5556 1.28267 18.2729 2.86364 18.2729C4.4446 18.2729 5.72727 19.5556 5.72727 21.1366Z" fill="#E37300"/>
</svg>