<svg width="25" height="26" viewBox="0 0 25 26" fill="none" xmlns="http://www.w3.org/2000/svg">
<path d="M20.2213 6.37406C20.2213 5.56306 19.5748 4.90822 18.7802 4.90822C17.9855 4.90822 17.3384 5.56306 17.3384 6.37406C17.3384 7.18207 17.9855 7.83691 18.7802 7.83691C19.5748 7.83691 20.2213 7.18207 20.2213 6.37406Z" fill="url(#paint0_linear_2252_15939)"/>
<path d="M22.1416 17.8165C22.0882 19.0062 21.8925 19.6526 21.73 20.0819C21.5117 20.6511 21.2514 21.0581 20.8292 21.485C20.4117 21.912 20.0114 22.1761 19.4515 22.3955C19.0293 22.5632 18.3911 22.7628 17.2211 22.8195C15.9561 22.8761 15.5813 22.8882 12.3735 22.8882C9.1687 22.8882 8.7909 22.8761 7.52594 22.8195C6.35589 22.7628 5.72073 22.5632 5.29845 22.3955C4.73567 22.1761 4.33834 21.912 3.91847 21.485C3.49561 21.0581 3.23528 20.6511 3.02 20.0819C2.85748 19.6526 2.65884 19.0062 2.6084 17.8165C2.54675 16.5303 2.53545 16.1432 2.53545 12.8883C2.53545 9.62677 2.54675 9.24264 2.6084 7.95647C2.65884 6.76682 2.85748 6.12102 3.02 5.68805C3.23528 5.11945 3.49561 4.71483 3.91847 4.28792C4.33834 3.86164 4.73567 3.5969 5.29845 3.37503C5.72073 3.2068 6.35589 3.01021 7.52594 2.95354C8.7909 2.89684 9.1687 2.88236 12.3735 2.88236C15.5813 2.88236 15.9561 2.89684 17.2211 2.95354C18.3911 3.01021 19.0293 3.2068 19.4515 3.37503C20.0114 3.5969 20.4117 3.86164 20.8292 4.28792C21.2514 4.71483 21.5117 5.11945 21.73 5.68805C21.8925 6.12102 22.0882 6.76682 22.1416 7.95647C22.2003 9.24264 22.2145 9.62677 22.2145 12.8883C22.2145 16.1432 22.2003 16.5303 22.1416 17.8165ZM24.3021 7.8564C24.2433 6.55635 24.0417 5.66815 23.7422 4.89455C23.4374 4.09196 23.0288 3.4118 22.3598 2.73163C21.6938 2.0545 21.0249 1.63902 20.2355 1.32549C19.4717 1.02398 18.6011 0.81654 17.3219 0.759874C16.0427 0.697147 15.6341 0.685705 12.3735 0.685705C9.11591 0.685705 8.70435 0.697147 7.42515 0.759874C6.14888 0.81654 5.27888 1.02398 4.5115 1.32549C3.72512 1.63902 3.05616 2.0545 2.39019 2.73163C1.72123 3.4118 1.31261 4.09196 1.00482 4.89455C0.708277 5.66815 0.506656 6.55635 0.444965 7.8564C0.389233 9.15703 0.375 9.57309 0.375 12.8883C0.375 16.2005 0.389233 16.6159 0.444965 17.9166C0.506656 19.2142 0.708277 20.1018 1.00482 20.879C1.31261 21.6786 1.72123 22.3618 2.39019 23.0389C3.05616 23.7161 3.72512 24.1346 4.5115 24.4475C5.27888 24.749 6.14888 24.954 7.42515 25.0137C8.70435 25.0734 9.11591 25.0879 12.3735 25.0879C15.6341 25.0879 16.0427 25.0734 17.3219 25.0137C18.6011 24.954 19.4717 24.749 20.2355 24.4475C21.0249 24.1346 21.6938 23.7161 22.3598 23.0389C23.0288 22.3618 23.4374 21.6786 23.7422 20.879C24.0417 20.1018 24.2433 19.2142 24.3021 17.9166C24.3608 16.6159 24.375 16.2005 24.375 12.8883C24.375 9.57309 24.3608 9.15703 24.3021 7.8564Z" fill="url(#paint1_linear_2252_15939)"/>
<path d="M12.3735 16.9517C10.1656 16.9517 8.37401 15.133 8.37401 12.8881C8.37401 10.6396 10.1656 8.81863 12.3735 8.81863C14.5821 8.81863 16.376 10.6396 16.376 12.8881C16.376 15.133 14.5821 16.9517 12.3735 16.9517ZM12.3735 6.61894C8.97003 6.61894 6.21356 9.42761 6.21356 12.8881C6.21356 16.3457 8.97003 19.1514 12.3735 19.1514C15.777 19.1514 18.5365 16.3457 18.5365 12.8881C18.5365 9.42761 15.777 6.61894 12.3735 6.61894Z" fill="url(#paint2_linear_2252_15939)"/>
<defs>
<linearGradient id="paint0_linear_2252_15939" x1="0.591443" y1="24.8354" x2="22.738" y2="3.05391" gradientUnits="userSpaceOnUse">
<stop stop-color="#FFD521"/>
<stop offset="0.05" stop-color="#FFD521"/>
<stop offset="0.501119" stop-color="#F50000"/>
<stop offset="0.95" stop-color="#B900B4"/>
<stop offset="0.950079" stop-color="#B900B4"/>
<stop offset="1" stop-color="#B900B4"/>
</linearGradient>
<linearGradient id="paint1_linear_2252_15939" x1="0.591477" y1="24.866" x2="22.7562" y2="3.06654" gradientUnits="userSpaceOnUse">
<stop stop-color="#FFD521"/>
<stop offset="0.05" stop-color="#FFD521"/>
<stop offset="0.501119" stop-color="#F50000"/>
<stop offset="0.95" stop-color="#B900B4"/>
<stop offset="0.950079" stop-color="#B900B4"/>
<stop offset="1" stop-color="#B900B4"/>
</linearGradient>
<linearGradient id="paint2_linear_2252_15939" x1="0.597137" y1="24.8664" x2="22.7565" y2="3.07224" gradientUnits="userSpaceOnUse">
<stop stop-color="#FFD521"/>
<stop offset="0.05" stop-color="#FFD521"/>
<stop offset="0.501119" stop-color="#F50000"/>
<stop offset="0.95" stop-color="#B900B4"/>
<stop offset="0.950079" stop-color="#B900B4"/>
<stop offset="1" stop-color="#B900B4"/>
</linearGradient>
</defs>
</svg>
