<svg width="21" height="18" viewBox="0 0 21 18" fill="none" xmlns="http://www.w3.org/2000/svg">
<path d="M0 1.55217C0 0.694956 0.695478 0 1.55374 0H18.8723C19.7301 0 20.4261 0.697565 20.4261 1.55217V16.4478C20.4261 17.305 19.7306 18 18.8723 18H1.55374C0.696 18 0 17.3024 0 16.4478V1.55217ZM1.4087 2.18296V15.817C1.4087 16.2355 1.76087 16.5913 2.19548 16.5913H18.2306C18.6678 16.5913 19.0174 16.2449 19.0174 15.817V2.18296C19.0174 1.76452 18.6652 1.4087 18.2306 1.4087H2.19548C1.75826 1.4087 1.4087 1.75513 1.4087 2.18296ZM2.11304 9.23113C2.11304 8.8007 2.43652 8.45217 2.84035 8.45217H6.31565C6.71739 8.45217 7.04296 8.79861 7.04296 9.23113V15.887H2.11252V9.23113H2.11304ZM7.74783 6.41687C7.74783 5.98487 8.0713 5.63478 8.47513 5.63478H11.9504C12.3522 5.63478 12.6777 5.98122 12.6777 6.41687V15.887H7.7473V6.41687H7.74783ZM13.3826 3.5953C13.3826 3.16539 13.7061 2.81687 14.1099 2.81687H17.5852C17.987 2.81687 18.3125 3.16644 18.3125 3.5953V15.8864H13.3821V3.5953H13.3826Z" fill="#0080F7"/>
</svg>
